<?xml version="1.0" encoding="UTF-8" standalone="no" ?>
<!DOCTYPE svg PUBLIC "-//W3C//DTD SVG 1.1//EN" "http://www.w3.org/Graphics/SVG/1.1/DTD/svg11.dtd">
<svg xmlns="http://www.w3.org/2000/svg" xmlns:xlink="http://www.w3.org/1999/xlink" version="1.1" width="1000" height="1000" viewBox="0 0 1200 1200" xml:space="preserve">
<desc>Created with Fabric.js 5.3.0</desc>
<defs>
</defs>
<g transform="matrix(1 0 0 1 605.5162819291 528.8274107216)" id="ibcDBsqc3H2xWgDlCuLzx"  >
<path style="stroke: rgb(0,0,0); stroke-width: 6; stroke-dasharray: none; stroke-linecap: butt; stroke-dashoffset: 0; stroke-linejoin: miter; stroke-miterlimit: 4; fill: rgb(0,0,0); fill-rule: nonzero; opacity: 1;"  transform=" translate(-268.0685082158, -320.1953434761)" d="M 158.41785 269.40267 C 86.30684 366.0931 49.127129999999994 464.45507 49.813779999999994 539.0840900000001 L 18.841249999999995 640.3906800000001 C -26.532040000000002 557.7811000000002 10.836849999999995 404.6536300000001 122.39067 255.0760800000001 C 207.82967 140.5147400000001 317.27485 54.19701000000009 415.45995 15.287840000000102 C 422.23918 9.564490000000102 429.81636 4.4715600000001015 438.12241 1.0302869668521453e-13 L 475.61177 29.4524600000001 C 468.89078 33.592020000000105 462.73913999999996 38.3891900000001 457.24107999999995 43.8552000000001 C 399.63973 101.1208300000001 435.10961999999995 210.5904800000001 536.1370099999999 290.3858600000001 L 523.1362799999999 332.9093200000001 C 417.96853999999996 240.3122800000001 363.25348999999994 140.7017100000001 381.26996999999994 69.2027000000001 L 373.2414999999999 77.8376400000001 C 298.88429999999994 117.9681600000001 221.31987999999993 185.0601600000001 158.41784999999993 269.40268000000015 z" stroke-linecap="round" />
</g>
</svg>