<?xml version="1.0" encoding="UTF-8" standalone="no" ?>
<!DOCTYPE svg PUBLIC "-//W3C//DTD SVG 1.1//EN" "http://www.w3.org/Graphics/SVG/1.1/DTD/svg11.dtd">
<svg xmlns="http://www.w3.org/2000/svg" xmlns:xlink="http://www.w3.org/1999/xlink" version="1.1" width="1000" height="1000" viewBox="0 0 1200 1200" xml:space="preserve">
<desc>Created with Fabric.js 5.3.0</desc>
<defs>
</defs>
<g transform="matrix(3.4906251098 0 0 4.1125000751 600 600)" id="PVxBs8QMOFd9NnkSKt-xk"  >
<path style="stroke: rgb(0,0,0); stroke-width: 0; stroke-dasharray: none; stroke-linecap: butt; stroke-dashoffset: 0; stroke-linejoin: miter; stroke-miterlimit: 4; fill: rgb(0,0,0); fill-rule: nonzero; opacity: 1;"  transform=" translate(0, 0)" d="M 0 -104.91803 C 57.91475 -104.91803 104.91803 -57.914750000000005 104.91803 0 C 104.91803 57.91475 57.914750000000005 104.91803 0 104.91803 C -57.91475 104.91803 -104.91803 57.914750000000005 -104.91803 0 C -104.91803 -57.91475 -57.914750000000005 -104.91803 0 -104.91803 z" stroke-linecap="round" />
</g>
<g transform="matrix(0.9584980445 0 0 1.1185770227 600 600)" id="s_UIxlvvGw9pjGegHMAMe"  >
<path style="stroke: rgb(0,0,0); stroke-width: 0; stroke-dasharray: none; stroke-linecap: butt; stroke-dashoffset: 0; stroke-linejoin: miter; stroke-miterlimit: 4; fill: rgb(255,0,0); fill-rule: nonzero; opacity: 1;"  transform=" translate(-331.80328, -331.803285)" d="M 331.80328 0.00001 C 334.61163 0.00001 337.41186 0.034960000000000005 340.20356999999996 0.10443999999999999 C 340.89554999999996 0.03514999999999999 341.59351 0.000009999999999996123 342.29508999999996 0.000009999999999996123 L 342.29508999999996 0.16299999999999998 C 520.60183 5.71042 663.60656 152.15809000000002 663.60656 331.80329 C 663.60656 334.60759 663.5717099999999 337.4038 663.5024299999999 340.19151 C 663.5712999999998 340.88337 663.60656 341.58512 663.60656 342.2951 L 663.4435699999999 342.2951 C 657.8961499999999 520.60184 511.4484799999999 663.6065699999999 331.8032799999999 663.6065699999999 C 328.9989999999999 663.6065699999999 326.20280999999994 663.5717199999999 323.4151299999999 663.5024399999999 C 322.7232499999999 663.5713099999998 322.0214899999999 663.6065699999999 321.3114799999999 663.6065699999999 L 321.3114799999999 663.4435699999999 C 143.0047399999999 657.8961599999999 -1.1368683772161603e-13 511.4484799999999 -1.1368683772161603e-13 331.8032799999999 C -1.1368683772161603e-13 328.99900999999994 0.03484999999988631 326.2028299999999 0.10412999999988631 323.4151499999999 C 0.03525999999988631 322.7232699999999 -1.1368683772161603e-13 322.0214899999999 -1.1368683772161603e-13 321.3114799999999 L 0.16299999999988632 321.3114799999999 C 5.710409999999887 143.0047399999999 152.1580899999999 -1.1368683772161603e-13 331.8032899999999 -1.1368683772161603e-13 z M 274.98504 641.10184 C 241.49501000000004 613.4817400000001 213.58464000000004 562.1729700000001 195.85473000000002 496.91609000000005 C 145.19681000000003 505.63624000000004 107.45269000000002 519.10897 91.83549000000002 534.91489 C 137.88784 589.25986 202.05634000000003 627.77418 274.98504 641.10186 z M 175.15896 342.2951 L 20.98361 342.2951 C 19.810769999999998 342.2951 18.6604 342.19888 17.53997 342.0139 C 19.68956 409.28398999999996 43.00272 471.24093 81.03497 521.44025 C 95.35461000000001 504.42439 136.03174 489.86918 191.71571 480.64855 C 181.77272 438.8133 175.88822 391.92149 175.15896 342.2951 z M 274.98501 22.50475 C 200.42901 36.12982 135.02848999999998 76.07809 88.77982999999998 132.35318999999998 C 101.87788999999998 149.46821 140.63401999999996 164.15553 194.04787 173.52646 C 211.65639 105.01916999999999 240.33409999999998 51.08226999999998 274.985 22.504749999999973 z M 17.54908 321.31149 L 175.15896 321.31149 C 175.84848 274.38971 181.14663000000002 229.91255 190.12640000000002 189.84269 C 131.35780000000003 179.95313000000002 89.60041000000002 164.09064 78.40628000000002 145.68657000000002 C 41.98218000000002 195.17868 19.703220000000023 255.71355 17.549080000000025 321.31148 z M 347.27425 645.85496 C 390.42551 634.54929 427.49665 576.52426 448.83321 494.15224 C 416.90345 489.60149 380.73613 486.84393 342.29509 486.39524 L 342.29509 642.62297 C 342.29509 643.79581 342.19887 644.94618 342.01389 646.06661 C 343.77101 646.01046 345.5245 645.93988 347.27426 645.85497 z M 468.12287 342.2951 L 342.29508999999996 342.2951 L 342.29508999999996 470.15425 C 382.1350699999999 470.56089 419.64338 473.27286 452.79401999999993 477.77717 C 461.97662999999994 437.01643 467.4356199999999 391.04614000000004 468.1228699999999 342.29510000000005 z M 347.27425 17.75162 C 345.61785 17.671239999999997 343.95808999999997 17.60369 342.29509 17.54908 L 342.29509 184.3613 C 381.43469000000005 183.90446 418.21718 181.05407 450.56971 176.35444 C 429.54555 90.33247000000001 391.6207 29.37043 347.27425 17.75161 z M 342.29509 321.31148 L 468.12287000000003 321.31148 C 467.47436000000005 275.30848000000003 462.57691000000005 231.78159000000002 454.31118000000004 192.77156000000002 C 420.78954000000004 197.40023000000002 382.74406000000005 200.18943000000002 342.29509 200.60229 z M 316.33231 17.75162 C 271.95446 29.378659999999996 234.00731000000002 90.41882 212.99222 176.5372 C 245.3992 181.17986000000002 282.19271000000003 183.97313000000003 321.31148 184.37571000000003 L 321.31148 20.983630000000034 C 321.31148 19.822230000000033 321.40776 18.670760000000033 321.59591 17.539880000000032 C 319.83771 17.59604000000003 318.08314 17.666660000000032 316.33232 17.75163000000003 z M 195.48369 321.31149 L 321.31147999999996 321.31149 L 321.31147999999996 200.60228999999998 C 280.86249999999995 200.18943 242.81702999999996 197.40023 209.29537999999997 192.77156 C 201.02964999999998 231.78159 196.13219999999995 275.30849 195.48368999999997 321.31149 z M 316.33231 645.85496 C 317.98871 645.93534 319.64847000000003 646.00289 321.31148 646.0575 L 321.31148 486.38084000000003 C 282.88906000000003 486.77626000000004 246.70986000000002 489.478 214.72700000000003 493.97318 C 236.05620000000005 576.44017 273.14978 634.5411 316.33231 645.85496 z M 321.31148 342.2951 L 195.48369000000002 342.2951 C 196.17094000000003 391.04615 201.62993000000003 437.01643 210.81254 477.77716999999996 C 243.96318000000002 473.27286 281.47149 470.56089999999995 321.31148 470.15424999999993 z M 388.62155 22.50475 C 423.2351 51.051460000000006 451.88832 104.90289 469.5017 173.30491 C 523.13428 163.77084000000002 561.77261 148.85321000000002 574.1351 131.51455 C 527.92716 75.68127000000001 462.80668 36.06203000000001 388.62154999999996 22.504740000000012 z M 488.4476 321.31149 L 642.62294 321.31149 C 643.7957799999999 321.31149 644.94616 321.40771 646.06659 321.59269 C 643.9669700000001 255.88656 621.67642 195.24941 585.20028 145.68658 C 574.00615 164.09064999999998 532.2487600000001 179.95313 473.48017000000004 189.84269 C 482.45993000000004 229.91255 487.75809000000004 274.3897 488.4476 321.31149 z M 388.62152 641.10184 C 461.22648999999996 627.83333 525.14888 589.6012800000001 571.15674 535.63764 C 556.11087 519.65098 518.48737 505.99275000000006 467.69282 497.13311000000004 C 449.96002 562.28673 422.07443 613.5123600000001 388.62152 641.10184 z M 646.05748 342.2951 L 488.4476000000001 342.2951 C 487.71834000000007 391.92149 481.83384000000007 438.81329999999997 471.89085000000006 480.64855 C 527.57483 489.86918000000003 568.25196 504.42439 582.5716000000001 521.44025 C 620.5508500000001 471.31089 643.8520000000001 409.45666 646.0574900000001 342.2951 z" stroke-linecap="round" />
</g>
</svg>